<?xml version="1.0" encoding="utf-8"?>
<!-- Generator: Adobe Illustrator 20.1.0, SVG Export Plug-In . SVG Version: 6.00 Build 0)  -->
<svg version="1.1" id="Capa_1" xmlns="http://www.w3.org/2000/svg" xmlns:xlink="http://www.w3.org/1999/xlink" x="0px" y="0px"
	 viewBox="0 0 985.7 214.2" style="enable-background:new 0 0 985.7 214.2;" xml:space="preserve">
<style type="text/css">
	.st0{fill:#C06989;}
	.st1{font-family:'DINNextRoundedLTPro-Regular';}
	.st2{font-size:27.4123px;}
	.st3{fill:#96BE3B;}
	.st4{fill:#565656;}
	.st5{fill:#6E5593;}
</style>
<text transform="matrix(1 0 0 1 472.2617 205.2137)" class="st0 st1 st2">Tours around Argentina y Latinamerica </text>
<path class="st3" d="M167.3,128.1l-0.1,6.4c0,8.9-7.8,16.2-16.8,16.2c-9,0-16.3-7.2-16.3-16.2V92.1h-29.2v43
	c0,22.8,18.7,41.3,41.7,41.3h7.5c23,0,41.6-18.5,41.6-41.3v-7H167.3z"/>
<path class="st0" d="M154,52.4h-7.5c-23,0-41.2,18.2-41.2,41l0.5-0.3v2.2v0.2c0,8.5,6,15.4,14,15.4c8,0,14-6.9,14-15.4v-0.2v-1.4
	c0-8.9,8-16.2,17-16.2c9,0,17,7.2,17,16.2v30.5h28V93C195.8,70.2,177,52.4,154,52.4z"/>
<path class="st4" d="M181.8,89.2c-8,0-14,7.5-14,16.7v0.3v1.5v18.7v0.3c0,9.2,6,16.7,14,16.7c8,0,14-7.5,14-16.7v-0.3v-18.7v-1.5
	v-0.3C195.8,96.7,189.8,89.2,181.8,89.2z"/>
<path class="st0" d="M11.3,165.2C7.2,162.5,5,158.3,5,154c0-6.5-1.2-11.7,11.9-11.7c2.9,0,5.6,0.9,7.7,2.2
	c10.1,5.6,17.3,7.9,26.2,7.9c12.9,0,20-5.9,20-14.4c0-7.2-4.3-11.7-18.9-13.7l-6.5-0.9c-25-3.4-38.7-15.1-38.7-36.7
	c0-22.5,16.9-37.4,43.3-37.4c13.5,0,27,3.6,34.2,8.1c4.3,2.7,6.3,6.3,6.3,10.6c0,6.7-5,11.5-11.5,11.5c-2.5,0-5.2-0.7-7.7-2
	c-5.9-2.9-13.5-5-21-5c-10.8,0-16.5,5.4-16.5,13.1c0,6.8,4.9,11.5,19.1,13.5l6.5,0.9c25.3,3.6,38.5,14.9,38.5,37
	c0,22.1-16.2,38.5-48,38.5C32.5,175.6,19.4,170.2,11.3,165.2z"/>
<path class="st0" d="M203,128.5V64.3c0-8.5,5.6-14,13.3-14c7.6,0,13.1,5.6,13.1,14v65.1c0,14.7,8.8,22.8,20.5,22.8
	c12.2,0,20.3-8.3,20.3-22.8V64.3c0-8.5-12.2-14.9,13.1-14c7.7,0.3,13.3,5.6,13.3,14v64.2c0,30.6-19.2,47.1-46.7,47.1
	C221.4,175.6,203,159.1,203,128.5z"/>
<path class="st0" d="M380.6,51.4h-69.9c-8.1,0-13.3,4.9-13.3,11.9c0,6.8,5.2,11.7,13.3,11.7h20.7c0.7,0,1.1,0.4,1.1,1.1v42.8h26.4
	V76c0-0.7,0.4-1.1,1.1-1.1h20.7c8.1,0,13.3-4.9,13.3-11.7C393.9,56.2,388.7,51.4,380.6,51.4z"/>
<path class="st4" d="M534.6,151.4H491c-0.7,0-1.1-0.6-1.1-1.3v-23.7v0V65.4c0-8.5-5.3-14-12.9-14c-7.8,0-13.1,5.6-13.1,14v60.9v0v35
	c0,7.9,4.8,13,12.9,13h57.9c8.1,0,13.4-4.6,13.4-11.6C548,155.9,542.7,151.4,534.6,151.4z"/>
<path class="st4" d="M545.1,157.3l33.1-91.5c3.4-9.7,8.8-15.5,18.2-15.5c9.3,0,14.9,5.8,18.3,15.5l32.5,91.5c0.5,1.4,0.9,3.2,0.9,5
	c0,7.6-6.1,12.4-12.8,12.4c-5.8,0-10.4-3.4-12.4-9.3l-5-14.9h-43.7l-4.9,14.9c-2,5.9-6.7,9.3-12.4,9.3c-6.7,0-12.8-4.9-12.8-12.4
	C544.2,160.5,544.6,158.7,545.1,157.3z M610.5,128l-14-42.8H596L581.8,128H610.5z"/>
<path class="st4" d="M665.5,160.7V76c0-0.7-0.4-1.1-1.1-1.1h-20.7c-8.1,0-13.3-4.9-13.3-11.7c0-7,5.2-11.9,13.3-11.9h69.9
	c8.1,0,13.3,4.9,13.3,11.9c0,6.8-5.2,11.7-13.3,11.7h-20.7c-0.7,0-1.1,0.4-1.1,1.1v84.7c0,8.5-5.6,14-13.3,14
	C671.1,174.7,665.5,169.1,665.5,160.7z"/>
<path class="st4" d="M710.3,157.3l33.1-91.5c3.4-9.7,8.8-15.5,18.2-15.5c9.3,0,14.9,5.8,18.3,15.5l32.5,91.5c0.5,1.4,0.9,3.2,0.9,5
	c0,7.6-6.1,12.4-12.8,12.4c-5.8,0-10.4-3.4-12.4-9.3l-5-14.9h-43.7l-4.9,14.9c-2,5.9-6.7,9.3-12.4,9.3c-6.7,0-12.8-4.9-12.8-12.4
	C709.4,160.5,709.8,158.7,710.3,157.3z M775.8,128l-14-42.8h-0.5L747,128H775.8z"/>
<path class="st4" d="M818.4,66.1c0-9.7,5.8-15.8,14.6-15.8c7.9,0,12.2,4.3,16.4,13.7l26.1,59h0.7l25.5-59c4-9.3,8.3-13.7,16.2-13.7
	c8.8,0,14.4,6.1,14.4,15.8v95.8c0,8.1-4.9,12.8-12,12.8c-7.2,0-12-4.7-12-12.8v-59h-0.9l-18.9,43.9c-3.8,8.6-6.8,11.1-12.9,11.1
	c-6.1,0-9.2-2.5-12.9-11.1L843.4,103h-0.9v59c0,8.1-5,12.8-11.9,12.8c-7.2,0-12.2-4.7-12.2-12.8V66.1z"/>
<path class="st4" d="M345.8,99.8c-7.4,0-13,7.5-13,16.7v0.3v1.5v41.2v0.3c0,9.2,5.6,16.7,13,16.7c7.4,0,13-7.5,13-16.7v-0.3v-41.2
	v-1.5v-0.3C358.8,107.3,353.2,99.8,345.8,99.8z"/>
<path class="st0" d="M476.7,85c-7.2,0-12.5,6.3-13.1,15.3h-41.3c-0.7,0-0.5-0.6-0.5-1.3V64.3c0-8.6-5.9-14-13.4-14
	c-7.7,0-13.6,5.4-13.6,14v96.4c0,8.6,5.7,14,13.4,14c7.6,0,13.6-5.4,13.6-14v-36c0-0.7-0.2-1.4,0.5-1.4h41.2
	c0.5,9,5.8,15.5,13.1,15.5c7.6,0,13.1-7.4,13.1-16.6V122v-18.7v-1.5v-0.3C489.8,92.4,484.3,85,476.7,85z"/>
<path class="st3" d="M417.1,111.9c0,6.9,6.7,11.5,15,11.5h0.2h1.4h16.8h0.2c8.2,0,15-4.6,15-11.5c0-6.9-6.7-11.5-15-11.5h-0.2h-16.8
	h-1.4h-0.2C423.9,100.4,417.1,104.9,417.1,111.9z"/>
<circle class="st5" cx="933.1" cy="16.9" r="11.9"/>
<circle class="st0" cx="966.6" cy="54.5" r="11.9"/>
<circle class="st0" cx="882.9" cy="28.1" r="5.5"/>
</svg>
